<?xml version="1.0" standalone="no"?>
<!DOCTYPE svg PUBLIC "-//W3C//DTD SVG 20010904//EN"
 "http://www.w3.org/TR/2001/REC-SVG-20010904/DTD/svg10.dtd">
<svg version="1.0" xmlns="http://www.w3.org/2000/svg"
 width="908.000000pt" height="908.000000pt" viewBox="0 0 908.000000 908.000000"
 preserveAspectRatio="xMidYMid meet">
<metadata>
Created by potrace 1.14, written by Peter Selinger 2001-2017
</metadata>
<g transform="translate(0.000000,908.000000) scale(0.100000,-0.100000)"
fill="#000000" stroke="none">
<path d="M4225 9050 c-696 -63 -1222 -212 -1813 -516 -250 -129 -637 -394
-847 -582 -228 -203 -485 -475 -580 -613 -22 -32 -71 -102 -109 -155 -170
-237 -384 -631 -490 -900 -78 -199 -176 -498 -176 -538 0 -11 -7 -43 -15 -73
-8 -29 -22 -77 -30 -105 -8 -29 -26 -123 -40 -208 -14 -85 -30 -179 -35 -209
-6 -30 -10 -90 -10 -133 0 -43 -3 -78 -8 -78 -10 0 -12 -39 -15 -385 -2 -316
1 -423 14 -441 5 -5 11 -61 14 -123 3 -63 9 -119 14 -125 5 -6 14 -45 21 -86
10 -69 28 -155 67 -330 8 -36 16 -79 18 -96 16 -115 230 -675 343 -894 142
-278 156 -302 266 -470 97 -146 138 -199 309 -395 87 -100 435 -455 445 -455
5 0 18 -10 29 -22 11 -13 33 -32 48 -43 57 -41 85 -62 183 -137 56 -43 152
-111 214 -152 62 -41 131 -87 153 -103 22 -15 65 -42 95 -59 30 -17 75 -43
100 -58 25 -14 61 -34 80 -44 19 -9 37 -20 40 -23 18 -20 360 -169 389 -169 6
0 11 -4 11 -9 0 -5 10 -11 23 -14 12 -3 75 -24 140 -46 65 -22 148 -47 185
-56 37 -8 81 -20 97 -24 103 -32 475 -105 605 -121 52 -6 133 -16 180 -23 114
-16 651 -15 800 1 812 90 1525 351 2170 795 42 29 107 77 145 107 39 30 91 71
116 90 150 113 425 375 555 530 268 318 541 747 693 1090 94 213 241 637 241
697 0 12 5 34 10 48 39 102 120 564 120 683 0 39 3 72 8 72 10 0 12 39 15 385
2 326 -1 424 -14 441 -4 5 -11 61 -14 123 -3 63 -9 119 -14 125 -5 6 -14 45
-21 86 -10 69 -28 155 -67 330 -8 36 -16 77 -18 92 -5 41 -80 262 -168 498
-51 139 -113 280 -175 400 -121 236 -141 273 -156 285 -7 6 -31 38 -54 73 -53
79 -117 171 -201 287 -319 440 -887 930 -1397 1207 -556 301 -1075 468 -1727
554 -135 18 -620 26 -762 14z m772 -459 c366 -43 782 -155 1108 -299 703 -310
1273 -760 1713 -1350 51 -67 92 -125 92 -127 0 -2 31 -51 68 -107 105 -157
237 -404 300 -558 49 -119 150 -425 182 -545 221 -854 159 -1825 -168 -2630
-22 -55 -44 -111 -48 -125 -10 -35 -146 -304 -206 -408 -108 -188 -229 -360
-377 -537 -83 -99 -299 -319 -401 -410 -36 -32 -81 -72 -100 -90 -134 -121
-401 -306 -622 -429 -173 -96 -229 -121 -608 -273 -447 -179 -859 -254 -1389
-253 -408 0 -681 34 -1051 131 -462 121 -809 277 -1205 542 -369 247 -626 481
-921 837 -132 159 -162 206 -354 550 -213 380 -369 798 -454 1210 -50 243 -66
434 -66 780 0 173 5 369 10 435 52 607 208 1111 520 1675 280 507 759 1011
1291 1356 117 76 127 82 279 167 216 120 396 197 685 295 180 61 537 140 725
162 300 34 709 35 997 1z"/>
<path d="M4700 8235 c-9 -11 -17 -12 -31 -5 -25 14 -67 2 -103 -27 -21 -17
-32 -21 -41 -13 -9 8 -15 8 -20 0 -3 -5 -17 -10 -31 -10 -14 0 -33 -4 -42 -9
-34 -17 -91 -20 -106 -5 -13 12 -15 12 -21 -5 -3 -11 -13 -18 -23 -16 -9 1
-27 -1 -39 -6 -15 -5 -25 -3 -33 7 -16 18 -25 18 -45 -2 -12 -12 -19 -14 -27
-6 -8 8 -15 2 -27 -21 -16 -32 -16 -32 -92 -32 -60 0 -81 -4 -97 -18 -11 -11
-26 -16 -31 -12 -6 3 -11 2 -11 -3 0 -5 -29 -8 -64 -7 -55 1 -65 -1 -69 -17
-4 -15 -16 -18 -79 -20 -40 0 -80 -1 -88 0 -8 0 -19 -6 -23 -14 -4 -8 -17 -14
-28 -14 -11 0 -22 -7 -25 -15 -4 -8 -16 -15 -28 -15 -12 0 -28 -6 -34 -12 -10
-10 -17 -10 -33 0 -18 12 -23 11 -36 -8 -11 -15 -23 -20 -39 -17 -14 2 -25 -2
-29 -11 -4 -11 -8 -12 -19 -3 -11 9 -23 6 -52 -13 -22 -14 -45 -31 -52 -37 -8
-6 -34 -12 -57 -13 -24 0 -50 -7 -57 -13 -6 -7 -18 -13 -25 -13 -8 0 -16 -7
-19 -15 -4 -8 -14 -15 -24 -15 -10 0 -21 -7 -24 -15 -4 -11 -17 -15 -41 -13
-22 1 -44 -5 -63 -19 -44 -32 -119 -63 -157 -65 -24 -1 -36 -7 -41 -20 -5 -18
-62 -54 -78 -50 -4 2 -19 -4 -32 -13 -13 -8 -30 -15 -38 -15 -7 0 -16 -7 -20
-15 -3 -8 -13 -15 -22 -15 -9 0 -34 -18 -56 -41 -29 -29 -44 -38 -59 -34 -13
5 -26 -1 -39 -17 -11 -13 -19 -27 -20 -31 -1 -21 -64 -57 -100 -57 -12 0 -20
-8 -22 -22 -2 -15 -11 -24 -27 -26 -13 -2 -31 -10 -38 -18 -8 -8 -20 -14 -27
-14 -8 0 -19 -7 -26 -15 -7 -9 -21 -13 -31 -10 -14 5 -19 1 -19 -13 0 -23 -54
-58 -115 -76 -27 -8 -41 -19 -45 -34 -5 -21 -86 -81 -145 -106 -17 -7 -45 -27
-62 -45 -17 -17 -36 -31 -41 -31 -15 0 -103 -47 -128 -67 -12 -10 -24 -26 -27
-35 -4 -10 -15 -18 -25 -18 -23 0 -37 -16 -46 -52 -8 -34 -99 -144 -126 -153
-12 -4 -20 -15 -20 -28 0 -13 -12 -34 -27 -49 -81 -78 -82 -81 -86 -280 -2
-96 -7 -180 -11 -186 -4 -6 -9 -51 -11 -99 -2 -51 -11 -105 -20 -128 -10 -22
-18 -67 -19 -100 -1 -33 -5 -66 -9 -72 -4 -7 -10 -52 -13 -100 -7 -97 -20
-140 -47 -149 -9 -3 -15 -10 -11 -15 3 -6 -2 -19 -12 -30 -15 -17 -16 -24 -6
-40 11 -18 9 -50 -5 -89 -3 -8 -7 -35 -7 -61 -2 -54 -29 -116 -55 -124 -14 -4
-19 -15 -19 -36 1 -16 -6 -37 -16 -47 -26 -27 -80 -114 -94 -152 -74 -195 -73
-193 -70 -270 2 -60 9 -88 35 -140 17 -36 37 -79 43 -97 7 -18 32 -58 56 -89
48 -61 56 -102 28 -142 -14 -21 -14 -23 10 -32 14 -5 26 -16 26 -25 0 -8 5
-24 12 -35 9 -15 10 -29 1 -61 -10 -37 -9 -44 8 -58 10 -9 24 -37 30 -62 10
-39 10 -52 -3 -80 -23 -50 -8 -196 21 -220 12 -10 37 -36 56 -59 27 -32 35
-51 35 -81 0 -26 7 -46 21 -60 14 -14 19 -28 15 -44 -5 -18 -1 -25 13 -30 25
-8 33 -29 21 -59 -6 -17 -4 -27 6 -38 9 -9 14 -33 14 -64 -2 -113 -1 -134 12
-231 7 -56 19 -108 26 -115 6 -6 12 -21 12 -31 0 -43 25 -98 61 -137 22 -23
39 -46 39 -51 0 -5 6 -9 13 -9 14 0 127 -115 127 -130 0 -5 5 -10 10 -10 6 0
32 -33 58 -73 48 -73 63 -92 139 -171 22 -24 49 -59 58 -77 10 -19 32 -46 49
-61 17 -15 38 -33 46 -40 8 -7 32 -26 55 -42 22 -16 47 -36 55 -46 16 -18 54
-40 108 -62 23 -9 35 -21 39 -40 4 -20 12 -28 26 -28 11 0 39 -18 63 -40 24
-22 53 -40 65 -40 15 0 19 -4 15 -16 -5 -13 -1 -14 22 -9 20 4 33 1 42 -10 7
-8 20 -15 29 -15 10 0 34 -16 55 -35 30 -28 42 -33 56 -25 27 15 44 12 67 -9
12 -11 24 -17 27 -14 3 4 6 -3 6 -15 0 -17 6 -22 25 -22 16 0 25 -6 25 -16 0
-15 2 -15 24 0 15 10 27 12 31 6 3 -6 15 -10 25 -10 10 0 26 -7 34 -16 9 -9
16 -11 16 -4 0 6 5 8 10 5 6 -4 8 -11 4 -16 -3 -5 0 -8 7 -7 8 2 15 -11 19
-32 4 -25 8 -31 14 -21 6 10 10 10 16 1 5 -9 16 -8 45 4 38 16 63 21 52 10 -9
-10 16 -32 30 -27 20 8 15 -34 -4 -42 -17 -7 -16 -8 2 -15 13 -5 26 -3 36 6
20 18 29 18 29 0 0 -9 7 -12 19 -9 12 3 25 -5 39 -21 11 -14 28 -26 37 -26 9
0 19 -9 22 -20 4 -16 9 -18 24 -9 15 7 19 6 19 -6 0 -8 5 -15 11 -15 5 0 7 -4
4 -10 -8 -14 18 -13 32 1 7 7 17 8 25 3 7 -5 16 -9 21 -9 4 0 15 -12 25 -27
l18 -27 17 29 c16 27 47 33 47 9 0 -5 10 -8 22 -6 15 1 26 -5 33 -20 5 -13 18
-23 28 -23 11 0 21 -9 24 -20 4 -16 14 -20 44 -20 24 0 45 -7 56 -18 36 -36
68 -49 115 -48 40 2 52 -2 74 -25 15 -16 41 -31 58 -35 17 -3 39 -13 48 -21 9
-8 21 -13 25 -10 11 7 25 -3 39 -28 10 -17 20 -19 66 -17 46 3 59 0 84 -21 38
-32 160 -62 244 -59 8 0 49 0 90 0 149 -2 171 1 234 26 36 14 73 26 83 26 10
0 38 14 63 31 33 22 51 28 72 24 28 -6 88 13 88 27 0 19 85 49 137 49 41 0 63
6 90 25 40 27 53 28 101 15 29 -9 39 -6 79 20 53 33 88 37 114 13 17 -15 22
-15 66 -1 29 10 70 14 101 12 39 -3 54 0 60 12 10 18 73 22 137 9 37 -7 44 -5
70 22 39 38 115 50 141 21 20 -22 29 -17 29 14 0 15 7 23 23 25 12 2 28 12 35
23 6 10 19 19 29 19 9 0 20 5 23 10 3 6 14 10 24 10 10 0 21 9 24 19 4 18 111
81 136 81 6 0 29 18 51 40 22 22 48 40 56 40 27 0 74 30 74 48 0 10 23 35 50
55 28 21 50 42 50 48 0 6 9 8 20 4 23 -7 74 20 66 34 -8 12 24 37 56 45 15 3
32 15 38 26 6 11 21 20 33 20 12 0 33 9 47 20 14 11 30 20 35 20 6 0 27 16 48
35 21 19 57 46 80 58 25 14 43 32 45 45 2 11 10 26 18 32 8 7 14 18 14 26 0 7
11 25 25 40 14 15 25 33 25 40 0 7 14 24 30 37 17 14 30 30 30 36 0 5 30 35
68 67 37 31 80 75 96 96 31 42 72 68 108 68 15 1 52 28 103 76 44 42 92 82
108 90 15 8 27 19 27 23 0 5 15 19 34 30 18 12 39 35 46 51 7 17 15 30 19 30
12 0 49 85 62 142 6 31 18 59 24 62 7 2 16 27 20 54 7 54 22 101 47 147 9 17
21 57 28 90 15 75 35 147 48 171 6 11 18 46 27 79 9 33 24 73 32 89 10 17 17
62 19 109 2 44 9 95 16 114 10 26 10 38 0 53 -17 27 -15 100 3 120 8 9 18 39
21 66 4 27 12 56 19 64 26 33 38 81 32 136 -4 38 -1 66 10 92 16 38 36 178 48
339 9 108 -7 254 -37 358 -11 39 -24 92 -29 119 -4 27 -15 56 -23 65 -27 30
-39 94 -28 146 12 55 8 71 -24 101 -19 18 -21 29 -17 63 5 34 1 48 -18 74 -19
26 -22 42 -21 97 2 61 0 70 -28 105 -16 21 -30 47 -30 59 0 27 -27 66 -45 66
-20 0 -105 104 -105 128 0 11 -4 24 -10 27 -5 3 -10 14 -10 23 0 9 -13 30 -30
45 -17 16 -30 39 -30 52 0 13 -4 27 -10 30 -5 3 -10 16 -10 28 0 15 -16 36
-44 59 -37 32 -44 43 -49 85 -3 33 -11 52 -26 62 -12 7 -21 19 -21 26 0 7 -9
19 -20 26 -15 10 -20 26 -22 62 -1 26 -7 52 -15 58 -7 6 -13 20 -13 30 0 10
-6 22 -13 26 -17 10 -57 76 -57 94 0 8 -15 21 -33 29 -41 19 -77 74 -77 116 0
19 -4 34 -10 34 -5 0 -18 21 -30 47 -20 46 -73 102 -97 103 -7 0 -19 14 -28
30 -9 17 -20 30 -25 30 -6 0 -10 8 -10 17 0 20 -48 73 -66 73 -6 0 -18 15 -25
32 -19 45 -77 108 -101 108 -19 0 -58 39 -89 89 -9 14 -29 33 -45 41 -16 8
-47 33 -69 56 -47 48 -72 58 -110 44 -21 -8 -32 -7 -44 3 -9 8 -27 17 -41 20
-14 4 -39 20 -57 36 -44 40 -89 61 -146 68 -26 3 -50 10 -53 14 -3 5 -25 17
-50 29 -25 11 -63 33 -84 50 -32 25 -47 30 -92 30 -50 0 -57 3 -93 40 -27 27
-45 38 -57 34 -22 -6 -90 16 -101 33 -4 7 -17 13 -27 13 -10 0 -21 4 -25 10
-4 6 -15 6 -31 0 -23 -9 -65 3 -136 40 -9 5 -39 12 -66 16 -33 4 -66 18 -98
40 -33 23 -51 31 -62 25 -19 -10 -69 5 -97 29 -36 31 -65 42 -79 31 -13 -11
-69 5 -89 25 -17 18 -81 33 -99 23 -12 -7 -27 -5 -47 6 -17 8 -38 15 -49 15
-10 0 -29 11 -42 25 -13 14 -33 25 -44 25 -12 0 -30 7 -40 15 -11 8 -30 15
-42 15 -12 0 -37 7 -57 15 -31 13 -37 13 -47 0z"/>
</g>
</svg>
